# xmcd CD database file generated by Grip 3.2.0
# 
# Track frame offsets:
#       150
#       30975
#       44437
#       63557
#       72450
#       83075
#       109837
#       120870
#       131400
# 
# Disc length: 2006 seconds
# 
# Revision: 5
# Processed by: cddbd v1.5.2PL0 Copyright (c) Steve Scherf et al.
# Submitted via: Grip 3.2.0
# 
DISCID=7207d409
DTITLE=Yardbirds - London 1963: The First Recordings! (with Eric Clapton)
DYEAR=1963
DGENRE=Blues
TTITLE0=Smokestack Lightning
TTITLE1=You Can't Judge a Book By Looking at the Cover
TTITLE2=Take It Easy Baby
TTITLE3=Talkin' About You
TTITLE4=Let It Rock
TTITLE5=I Wish You Would
TTITLE6=Boom Boom
TTITLE7=Honey in Your Hips
TTITLE8=Who Do You Love
EXTD=
EXTT0=
EXTT1=
EXTT2=
EXTT3=
EXTT4=
EXTT5=
EXTT6=
EXTT7=
EXTT8=
PLAYORDER=
